<svg width="30" height="30" viewBox="0 0 30 30" fill="none" xmlns="http://www.w3.org/2000/svg">
<path d="M28.5962 21.7651V25.8901C28.5977 26.2731 28.5193 26.6521 28.3659 27.003C28.2124 27.3539 27.9874 27.6688 27.7053 27.9277C27.4231 28.1866 27.0899 28.3837 26.7272 28.5064C26.3644 28.629 25.98 28.6746 25.5987 28.6401C21.3676 28.1804 17.3033 26.7346 13.7324 24.4189C10.4102 22.3078 7.5935 19.4911 5.48241 16.1689C3.15863 12.5818 1.71249 8.49775 1.26116 4.24763C1.2268 3.8674 1.27199 3.48418 1.39385 3.12237C1.51571 2.76056 1.71157 2.42808 1.96896 2.14611C2.22636 1.86414 2.53964 1.63886 2.88887 1.4846C3.2381 1.33034 3.61563 1.25049 3.99741 1.25013H8.12241C8.78971 1.24357 9.43662 1.47987 9.94258 1.91499C10.4485 2.35012 10.779 2.95437 10.8724 3.61513C11.0465 4.93522 11.3694 6.23138 11.8349 7.47888C12.0199 7.97103 12.0599 8.50589 11.9503 9.02009C11.8406 9.5343 11.5858 10.0063 11.2162 10.3801L9.46991 12.1264C11.4273 15.5688 14.2775 18.419 17.7199 20.3764L19.4662 18.6301C19.84 18.2604 20.312 18.0057 20.8262 17.896C21.3404 17.7863 21.8753 17.8264 22.3674 18.0114C23.6149 18.4769 24.9111 18.7998 26.2312 18.9739C26.8991 19.0681 27.5091 19.4045 27.9451 19.9192C28.3812 20.4338 28.6129 21.0908 28.5962 21.7651Z" stroke="#1F4451" stroke-width="2.5" stroke-linecap="round" stroke-linejoin="round"/>
</svg>
